<svg width="285" height="55" viewBox="0 0 285 55" fill="none" xmlns="http://www.w3.org/2000/svg">
<rect x="0.5" y="0.5" width="284" height="54" rx="27" fill="#202027"/>
<rect x="0.5" y="0.5" width="284" height="54" rx="27" stroke="#202027"/>
<path d="M115.027 21.8V33H112.979V23.56H107.171V33H105.123V21.8H115.027ZM121.769 33.112C120.905 33.112 120.127 32.9253 119.433 32.552C118.74 32.1787 118.196 31.6613 117.801 31C117.417 30.328 117.225 29.5707 117.225 28.728C117.225 27.8853 117.417 27.1333 117.801 26.472C118.196 25.8107 118.74 25.2933 119.433 24.92C120.127 24.5467 120.905 24.36 121.769 24.36C122.644 24.36 123.428 24.5467 124.121 24.92C124.815 25.2933 125.353 25.8107 125.737 26.472C126.132 27.1333 126.329 27.8853 126.329 28.728C126.329 29.5707 126.132 30.328 125.737 31C125.353 31.6613 124.815 32.1787 124.121 32.552C123.428 32.9253 122.644 33.112 121.769 33.112ZM121.769 31.4C122.505 31.4 123.113 31.1547 123.593 30.664C124.073 30.1733 124.313 29.528 124.313 28.728C124.313 27.928 124.073 27.2827 123.593 26.792C123.113 26.3013 122.505 26.056 121.769 26.056C121.033 26.056 120.425 26.3013 119.945 26.792C119.476 27.2827 119.241 27.928 119.241 28.728C119.241 29.528 119.476 30.1733 119.945 30.664C120.425 31.1547 121.033 31.4 121.769 31.4ZM136.305 28.776C136.305 28.9147 136.294 29.112 136.273 29.368H129.569C129.686 29.9973 129.99 30.4987 130.481 30.872C130.982 31.2347 131.601 31.416 132.337 31.416C133.276 31.416 134.049 31.1067 134.657 30.488L135.729 31.72C135.345 32.1787 134.86 32.5253 134.273 32.76C133.686 32.9947 133.025 33.112 132.289 33.112C131.35 33.112 130.524 32.9253 129.809 32.552C129.094 32.1787 128.54 31.6613 128.145 31C127.761 30.328 127.569 29.5707 127.569 28.728C127.569 27.896 127.756 27.1493 128.129 26.488C128.513 25.816 129.041 25.2933 129.713 24.92C130.385 24.5467 131.142 24.36 131.985 24.36C132.817 24.36 133.558 24.5467 134.209 24.92C134.87 25.2827 135.382 25.8 135.745 26.472C136.118 27.1333 136.305 27.9013 136.305 28.776ZM131.985 25.96C131.345 25.96 130.801 26.152 130.353 26.536C129.916 26.9093 129.649 27.4107 129.553 28.04H134.401C134.316 27.4213 134.054 26.92 133.617 26.536C133.18 26.152 132.636 25.96 131.985 25.96ZM143.602 33L141.41 30.04L139.202 33H136.994L140.322 28.664L137.138 24.456H139.362L141.458 27.256L143.554 24.456H145.714L142.514 28.632L145.858 33H143.602ZM150.317 24.36C151.576 24.36 152.536 24.664 153.197 25.272C153.869 25.8693 154.205 26.776 154.205 27.992V33H152.317V31.96C152.072 32.3333 151.72 32.6213 151.261 32.824C150.813 33.016 150.269 33.112 149.629 33.112C148.989 33.112 148.429 33.0053 147.949 32.792C147.469 32.568 147.096 32.264 146.829 31.88C146.573 31.4853 146.445 31.0427 146.445 30.552C146.445 29.784 146.728 29.1707 147.293 28.712C147.869 28.2427 148.77 28.008 149.997 28.008H152.205V27.88C152.205 27.2827 152.024 26.824 151.661 26.504C151.309 26.184 150.781 26.024 150.077 26.024C149.597 26.024 149.122 26.0987 148.653 26.248C148.194 26.3973 147.805 26.6053 147.485 26.872L146.701 25.416C147.149 25.0747 147.688 24.8133 148.317 24.632C148.946 24.4507 149.613 24.36 150.317 24.36ZM150.045 31.656C150.546 31.656 150.989 31.544 151.373 31.32C151.768 31.0853 152.045 30.7547 152.205 30.328V29.336H150.141C148.989 29.336 148.413 29.7147 148.413 30.472C148.413 30.8347 148.557 31.1227 148.845 31.336C149.133 31.5493 149.533 31.656 150.045 31.656ZM164.424 24.456V33H162.424V26.152H159.224L159.144 27.848C159.091 28.9787 158.984 29.928 158.824 30.696C158.675 31.4533 158.413 32.056 158.04 32.504C157.677 32.9413 157.176 33.16 156.536 33.16C156.237 33.16 155.869 33.1013 155.432 32.984L155.528 31.304C155.677 31.336 155.805 31.352 155.912 31.352C156.317 31.352 156.621 31.192 156.824 30.872C157.027 30.5413 157.155 30.152 157.208 29.704C157.272 29.2453 157.325 28.5947 157.368 27.752L157.512 24.456H164.424ZM167.117 24.456H169.117V30.088L173.837 24.456H175.661V33H173.661V27.368L168.957 33H167.117V24.456ZM178.064 21.8H180.432L180.032 29.288H178.448L178.064 21.8ZM179.248 33.112C178.874 33.112 178.565 32.9947 178.32 32.76C178.074 32.5147 177.952 32.216 177.952 31.864C177.952 31.512 178.074 31.2187 178.32 30.984C178.565 30.7493 178.874 30.632 179.248 30.632C179.61 30.632 179.909 30.7493 180.144 30.984C180.389 31.2187 180.512 31.512 180.512 31.864C180.512 32.216 180.389 32.5147 180.144 32.76C179.909 32.9947 179.61 33.112 179.248 33.112Z" fill="white"/>
</svg>
