<svg width="247" height="66" viewBox="0 0 247 66" fill="none" xmlns="http://www.w3.org/2000/svg">
<rect x="0.5" y="0.5" width="246" height="65" rx="32.5" fill="#202027"/>
<rect x="0.5" y="0.5" width="246" height="65" rx="32.5" stroke="#202027"/>
<path d="M82.2906 25.2V42H79.2186V27.84H70.5066V42H67.4346V25.2H82.2906ZM92.4038 42.168C91.1078 42.168 89.9398 41.888 88.8998 41.328C87.8598 40.768 87.0438 39.992 86.4518 39C85.8758 37.992 85.5878 36.856 85.5878 35.592C85.5878 34.328 85.8758 33.2 86.4518 32.208C87.0438 31.216 87.8598 30.44 88.8998 29.88C89.9398 29.32 91.1078 29.04 92.4038 29.04C93.7158 29.04 94.8918 29.32 95.9318 29.88C96.9718 30.44 97.7798 31.216 98.3558 32.208C98.9478 33.2 99.2438 34.328 99.2438 35.592C99.2438 36.856 98.9478 37.992 98.3558 39C97.7798 39.992 96.9718 40.768 95.9318 41.328C94.8918 41.888 93.7158 42.168 92.4038 42.168ZM92.4038 39.6C93.5078 39.6 94.4198 39.232 95.1398 38.496C95.8598 37.76 96.2198 36.792 96.2198 35.592C96.2198 34.392 95.8598 33.424 95.1398 32.688C94.4198 31.952 93.5078 31.584 92.4038 31.584C91.2998 31.584 90.3878 31.952 89.6678 32.688C88.9638 33.424 88.6118 34.392 88.6118 35.592C88.6118 36.792 88.9638 37.76 89.6678 38.496C90.3878 39.232 91.2998 39.6 92.4038 39.6ZM114.207 35.664C114.207 35.872 114.191 36.168 114.159 36.552H104.103C104.279 37.496 104.735 38.248 105.471 38.808C106.223 39.352 107.151 39.624 108.255 39.624C109.663 39.624 110.823 39.16 111.735 38.232L113.343 40.08C112.767 40.768 112.039 41.288 111.159 41.64C110.279 41.992 109.287 42.168 108.183 42.168C106.775 42.168 105.535 41.888 104.463 41.328C103.391 40.768 102.559 39.992 101.967 39C101.391 37.992 101.103 36.856 101.103 35.592C101.103 34.344 101.383 33.224 101.943 32.232C102.519 31.224 103.311 30.44 104.319 29.88C105.327 29.32 106.463 29.04 107.727 29.04C108.975 29.04 110.087 29.32 111.063 29.88C112.055 30.424 112.823 31.2 113.367 32.208C113.927 33.2 114.207 34.352 114.207 35.664ZM107.727 31.44C106.767 31.44 105.951 31.728 105.279 32.304C104.623 32.864 104.223 33.616 104.079 34.56H111.351C111.223 33.632 110.831 32.88 110.175 32.304C109.519 31.728 108.703 31.44 107.727 31.44ZM125.153 42L121.865 37.56L118.553 42H115.241L120.233 35.496L115.457 29.184H118.793L121.937 33.384L125.081 29.184H128.321L123.521 35.448L128.537 42H125.153ZM135.226 29.04C137.114 29.04 138.554 29.496 139.546 30.408C140.554 31.304 141.058 32.664 141.058 34.488V42H138.226V40.44C137.858 41 137.33 41.432 136.642 41.736C135.97 42.024 135.154 42.168 134.194 42.168C133.234 42.168 132.394 42.008 131.674 41.688C130.954 41.352 130.394 40.896 129.994 40.32C129.61 39.728 129.418 39.064 129.418 38.328C129.418 37.176 129.842 36.256 130.69 35.568C131.554 34.864 132.906 34.512 134.746 34.512H138.058V34.32C138.058 33.424 137.786 32.736 137.242 32.256C136.714 31.776 135.922 31.536 134.866 31.536C134.146 31.536 133.434 31.648 132.73 31.872C132.042 32.096 131.458 32.408 130.978 32.808L129.802 30.624C130.474 30.112 131.282 29.72 132.226 29.448C133.17 29.176 134.17 29.04 135.226 29.04ZM134.818 39.984C135.57 39.984 136.234 39.816 136.81 39.48C137.402 39.128 137.818 38.632 138.058 37.992V36.504H134.962C133.234 36.504 132.37 37.072 132.37 38.208C132.37 38.752 132.586 39.184 133.018 39.504C133.45 39.824 134.05 39.984 134.818 39.984ZM156.386 29.184V42H153.386V31.728H148.586L148.466 34.272C148.386 35.968 148.226 37.392 147.986 38.544C147.762 39.68 147.37 40.584 146.81 41.256C146.266 41.912 145.514 42.24 144.554 42.24C144.106 42.24 143.554 42.152 142.898 41.976L143.042 39.456C143.266 39.504 143.458 39.528 143.618 39.528C144.226 39.528 144.682 39.288 144.986 38.808C145.29 38.312 145.482 37.728 145.562 37.056C145.658 36.368 145.738 35.392 145.802 34.128L146.018 29.184H156.386ZM160.426 29.184H163.426V37.632L170.506 29.184H173.242V42H170.242V33.552L163.186 42H160.426V29.184ZM176.846 25.2H180.398L179.798 36.432H177.422L176.846 25.2ZM178.622 42.168C178.062 42.168 177.598 41.992 177.23 41.64C176.862 41.272 176.678 40.824 176.678 40.296C176.678 39.768 176.862 39.328 177.23 38.976C177.598 38.624 178.062 38.448 178.622 38.448C179.166 38.448 179.614 38.624 179.966 38.976C180.334 39.328 180.518 39.768 180.518 40.296C180.518 40.824 180.334 41.272 179.966 41.64C179.614 41.992 179.166 42.168 178.622 42.168Z" fill="white"/>
</svg>
