<svg width="247" height="66" viewBox="0 0 247 66" fill="none" xmlns="http://www.w3.org/2000/svg">
<rect x="0.5" y="0.5" width="246" height="65" rx="32.5" stroke="black"/>
<path d="M78.0518 25.2H81.1238V37.128L90.1478 25.2H93.0518V42H89.9798V30.096L80.9558 42H78.0518V25.2ZM107.266 31.728H100.426V42H97.4262V29.184H107.266V31.728ZM116.554 29.04C117.802 29.04 118.914 29.312 119.89 29.856C120.882 30.4 121.658 31.168 122.218 32.16C122.778 33.152 123.058 34.296 123.058 35.592C123.058 36.888 122.778 38.04 122.218 39.048C121.658 40.04 120.882 40.808 119.89 41.352C118.914 41.896 117.802 42.168 116.554 42.168C114.826 42.168 113.458 41.592 112.45 40.44V46.656H109.45V29.184H112.306V30.864C112.802 30.256 113.41 29.8 114.13 29.496C114.866 29.192 115.674 29.04 116.554 29.04ZM116.218 39.6C117.322 39.6 118.226 39.232 118.93 38.496C119.65 37.76 120.01 36.792 120.01 35.592C120.01 34.392 119.65 33.424 118.93 32.688C118.226 31.952 117.322 31.584 116.218 31.584C115.498 31.584 114.85 31.752 114.274 32.088C113.698 32.408 113.242 32.872 112.906 33.48C112.57 34.088 112.402 34.792 112.402 35.592C112.402 36.392 112.57 37.096 112.906 37.704C113.242 38.312 113.698 38.784 114.274 39.12C114.85 39.44 115.498 39.6 116.218 39.6ZM130.655 29.04C132.543 29.04 133.983 29.496 134.975 30.408C135.983 31.304 136.487 32.664 136.487 34.488V42H133.655V40.44C133.287 41 132.759 41.432 132.071 41.736C131.399 42.024 130.583 42.168 129.623 42.168C128.663 42.168 127.823 42.008 127.103 41.688C126.383 41.352 125.823 40.896 125.423 40.32C125.039 39.728 124.847 39.064 124.847 38.328C124.847 37.176 125.271 36.256 126.119 35.568C126.983 34.864 128.335 34.512 130.175 34.512H133.487V34.32C133.487 33.424 133.215 32.736 132.671 32.256C132.143 31.776 131.351 31.536 130.295 31.536C129.575 31.536 128.863 31.648 128.159 31.872C127.471 32.096 126.887 32.408 126.407 32.808L125.231 30.624C125.903 30.112 126.711 29.72 127.655 29.448C128.599 29.176 129.599 29.04 130.655 29.04ZM130.247 39.984C130.999 39.984 131.663 39.816 132.239 39.48C132.831 39.128 133.247 38.632 133.487 37.992V36.504H130.391C128.663 36.504 127.799 37.072 127.799 38.208C127.799 38.752 128.015 39.184 128.447 39.504C128.879 39.824 129.479 39.984 130.247 39.984ZM150.352 31.728H145.864V42H142.864V31.728H138.352V29.184H150.352V31.728ZM158.96 33.408C160.592 33.408 161.84 33.776 162.704 34.512C163.584 35.248 164.024 36.288 164.024 37.632C164.024 39.04 163.544 40.128 162.584 40.896C161.624 41.664 160.272 42.04 158.528 42.024L152.528 42V29.184H155.528V33.384L158.96 33.408ZM158.264 39.816C159.144 39.832 159.816 39.648 160.28 39.264C160.744 38.88 160.976 38.32 160.976 37.584C160.976 36.864 160.752 36.336 160.304 36C159.856 35.664 159.176 35.488 158.264 35.472L155.528 35.448V39.792L158.264 39.816ZM166.229 25.2H169.781L169.181 36.432H166.805L166.229 25.2ZM168.005 42.168C167.445 42.168 166.981 41.992 166.613 41.64C166.245 41.272 166.061 40.824 166.061 40.296C166.061 39.768 166.245 39.328 166.613 38.976C166.981 38.624 167.445 38.448 168.005 38.448C168.549 38.448 168.997 38.624 169.349 38.976C169.717 39.328 169.901 39.768 169.901 40.296C169.901 40.824 169.717 41.272 169.349 41.64C168.997 41.992 168.549 42.168 168.005 42.168Z" fill="#202027"/>
</svg>
