<svg width="286" height="56" viewBox="0 0 286 56" fill="none" xmlns="http://www.w3.org/2000/svg">
<rect x="0.537109" y="0.802063" width="284" height="54" rx="27" fill="#202027"/>
<rect x="0.537109" y="0.802063" width="284" height="54" rx="27" stroke="#202027"/>
<path d="M112.238 22.1021H114.286V30.0541L120.302 22.1021H122.238V33.3021H120.19V25.3661L114.174 33.3021H112.238V22.1021ZM131.715 26.4541H127.155V33.3021H125.155V24.7581H131.715V26.4541ZM137.906 24.6621C138.738 24.6621 139.48 24.8434 140.13 25.2061C140.792 25.5687 141.309 26.0807 141.682 26.7421C142.056 27.4034 142.242 28.1661 142.242 29.0301C142.242 29.8941 142.056 30.6621 141.682 31.3341C141.309 31.9954 140.792 32.5074 140.13 32.8701C139.48 33.2327 138.738 33.4141 137.906 33.4141C136.754 33.4141 135.842 33.0301 135.17 32.2621V36.4061H133.17V24.7581H135.074V25.8781C135.405 25.4727 135.81 25.1687 136.29 24.9661C136.781 24.7634 137.32 24.6621 137.906 24.6621ZM137.682 31.7021C138.418 31.7021 139.021 31.4567 139.49 30.9661C139.97 30.4754 140.21 29.8301 140.21 29.0301C140.21 28.2301 139.97 27.5847 139.49 27.0941C139.021 26.6034 138.418 26.3581 137.682 26.3581C137.202 26.3581 136.77 26.4701 136.386 26.6941C136.002 26.9074 135.698 27.2167 135.474 27.6221C135.25 28.0274 135.138 28.4967 135.138 29.0301C135.138 29.5634 135.25 30.0327 135.474 30.4381C135.698 30.8434 136.002 31.1581 136.386 31.3821C136.77 31.5954 137.202 31.7021 137.682 31.7021ZM147.307 24.6621C148.566 24.6621 149.526 24.9661 150.187 25.5741C150.859 26.1714 151.195 27.0781 151.195 28.2941V33.3021H149.307V32.2621C149.062 32.6354 148.71 32.9234 148.251 33.1261C147.803 33.3181 147.259 33.4141 146.619 33.4141C145.979 33.4141 145.419 33.3074 144.939 33.0941C144.459 32.8701 144.086 32.5661 143.819 32.1821C143.563 31.7874 143.435 31.3447 143.435 30.8541C143.435 30.0861 143.718 29.4727 144.283 29.0141C144.859 28.5447 145.761 28.3101 146.987 28.3101H149.195V28.1821C149.195 27.5847 149.014 27.1261 148.651 26.8061C148.299 26.4861 147.771 26.3261 147.067 26.3261C146.587 26.3261 146.113 26.4007 145.643 26.5501C145.185 26.6994 144.795 26.9074 144.475 27.1741L143.691 25.7181C144.139 25.3767 144.678 25.1154 145.307 24.9341C145.937 24.7527 146.603 24.6621 147.307 24.6621ZM147.035 31.9581C147.537 31.9581 147.979 31.8461 148.363 31.6221C148.758 31.3874 149.035 31.0567 149.195 30.6301V29.6381H147.131C145.979 29.6381 145.403 30.0167 145.403 30.7741C145.403 31.1367 145.547 31.4247 145.835 31.6381C146.123 31.8514 146.523 31.9581 147.035 31.9581ZM160.438 26.4541H157.446V33.3021H155.446V26.4541H152.438V24.7581H160.438V26.4541ZM166.177 27.5741C167.265 27.5741 168.097 27.8194 168.673 28.3101C169.26 28.8007 169.553 29.4941 169.553 30.3901C169.553 31.3287 169.233 32.0541 168.593 32.5661C167.953 33.0781 167.052 33.3287 165.889 33.3181L161.889 33.3021V24.7581H163.889V27.5581L166.177 27.5741ZM165.713 31.8461C166.3 31.8567 166.748 31.7341 167.057 31.4781C167.366 31.2221 167.521 30.8487 167.521 30.3581C167.521 29.8781 167.372 29.5261 167.073 29.3021C166.774 29.0781 166.321 28.9607 165.713 28.9501L163.889 28.9341V31.8301L165.713 31.8461ZM171.023 22.1021H173.391L172.991 29.5901H171.407L171.023 22.1021ZM172.207 33.4141C171.833 33.4141 171.524 33.2967 171.279 33.0621C171.033 32.8167 170.911 32.5181 170.911 32.1661C170.911 31.8141 171.033 31.5207 171.279 31.2861C171.524 31.0514 171.833 30.9341 172.207 30.9341C172.569 30.9341 172.868 31.0514 173.103 31.2861C173.348 31.5207 173.471 31.8141 173.471 32.1661C173.471 32.5181 173.348 32.8167 173.103 33.0621C172.868 33.2967 172.569 33.4141 172.207 33.4141Z" fill="white"/>
</svg>
